<svg width="24" height="30" viewBox="0 0 24 30" fill="none" xmlns="http://www.w3.org/2000/svg">
<path d="M4.929 19.6284C3.119 20.1714 2 20.9214 2 21.7499C2 23.4069 6.477 24.7499 12 24.7499C17.523 24.7499 22 23.4069 22 21.7499C22 20.9214 20.8805 20.1714 19.071 19.6284" stroke="#32444D" stroke-linecap="round" stroke-linejoin="round"/>
<path d="M12 20.75C12 20.75 18.5 16.502 18.5 11.591C18.5 8.089 15.59 5.25 12 5.25C8.41 5.25 5.5 8.089 5.5 11.591C5.5 16.502 12 20.75 12 20.75Z" stroke="#32444D" stroke-width="1.5" stroke-linejoin="round"/>
<path d="M12 14.25C12.663 14.25 13.2989 13.9866 13.7678 13.5178C14.2366 13.0489 14.5 12.413 14.5 11.75C14.5 11.087 14.2366 10.4511 13.7678 9.98223C13.2989 9.51339 12.663 9.25 12 9.25C11.337 9.25 10.7011 9.51339 10.2322 9.98223C9.76339 10.4511 9.5 11.087 9.5 11.75C9.5 12.413 9.76339 13.0489 10.2322 13.5178C10.7011 13.9866 11.337 14.25 12 14.25Z" stroke="#32444D" stroke-linejoin="round"/>
</svg>
