<svg width="29" height="30" viewBox="0 0 29 30" fill="none" xmlns="http://www.w3.org/2000/svg">
<g clip-path="url(#clip0_1_106)">
<path d="M0 0.5H29V29.5H0V0.5Z" fill="#012169"/>
<path d="M29 0.5V4.125L18.2383 15L29 25.5918V29.5H25.2051L14.3867 18.8516L3.85156 29.5H0V25.6484L10.5352 15.0566L0 4.69141V0.5H3.51172L14.3867 11.1484L24.9219 0.5H29Z" fill="white"/>
<path d="M10.4219 18.8516L11.0449 20.7773L2.37891 29.5H0V29.3301L10.4219 18.8516ZM17.4453 18.1719L20.5039 18.625L29 26.9512V29.5L17.4453 18.1719ZM29 0.5L18.125 11.6016L17.8984 9.10938L26.3945 0.5H29ZM0 0.556641L10.9316 11.2617L7.58984 10.8086L0 3.27539V0.556641Z" fill="#C8102E"/>
<path d="M9.96875 0.5V29.5H19.0312V0.5H9.96875ZM0 10.4688V19.5312H29V10.4688H0Z" fill="white"/>
<path d="M0 12.2812V17.7188H29V12.2812H0ZM11.7812 0.5V29.5H17.2188V0.5H11.7812Z" fill="#C8102E"/>
</g>
<defs>
<clipPath id="clip0_1_106">
<rect width="29" height="29" fill="white" transform="translate(0 0.5)"/>
</clipPath>
</defs>
</svg>
