<svg width="103" height="103" viewBox="0 0 103 103" fill="none" xmlns="http://www.w3.org/2000/svg">
<rect x="34" y="34" width="35" height="35" fill="white"/>
<path fill-rule="evenodd" clip-rule="evenodd" d="M51.5 17.1667C55.1694 17.1667 58.9331 17.2612 62.5811 17.4157L66.8899 17.6217L71.0142 17.8663L74.8767 18.1281L78.4044 18.4027C82.2334 18.6941 85.8367 20.3273 88.5798 23.0146C91.3228 25.7019 93.0296 29.2709 93.3995 33.0931L93.5712 34.9171L93.8931 38.8225C94.1935 42.8695 94.4166 47.2814 94.4166 51.5001C94.4166 55.7188 94.1935 60.1306 93.8931 64.1777L93.5712 68.0831L93.3995 69.907C93.0295 73.7299 91.3221 77.2995 88.5782 79.9869C85.8342 82.6743 82.2299 84.307 78.4001 84.5974L74.881 84.8678L71.0185 85.1339L66.8899 85.3785L62.5811 85.5845C58.8895 85.7444 55.195 85.8274 51.5 85.8334C47.805 85.8274 44.1105 85.7444 40.4189 85.5845L36.1101 85.3785L31.9858 85.1339L28.1233 84.8678L24.5955 84.5974C20.7666 84.3061 17.1632 82.6729 14.4202 79.9856C11.6771 77.2983 9.97034 73.7292 9.60044 69.907L9.42877 68.0831L9.1069 64.1777C8.78001 59.9595 8.60537 55.7309 8.58331 51.5001C8.58331 47.2814 8.80648 42.8695 9.1069 38.8225L9.42877 34.9171L9.60044 33.0931C9.9702 29.2716 11.6764 25.7031 14.4185 23.0159C17.1607 20.3287 20.763 18.6951 24.5912 18.4027L28.1147 18.1281L31.9772 17.8663L36.1058 17.6217L40.4146 17.4157C44.1076 17.2557 47.8035 17.1727 51.5 17.1667ZM42.9166 41.0928V61.9074C42.9166 63.8901 45.0625 65.1261 46.7791 64.139L64.8041 53.7318C65.1964 53.506 65.5222 53.1808 65.7487 52.789C65.9752 52.3972 66.0945 51.9527 66.0945 51.5001C66.0945 51.0475 65.9752 50.6029 65.7487 50.2112C65.5222 49.8194 65.1964 49.4942 64.8041 49.2684L46.7791 38.8654C46.3876 38.6393 45.9434 38.5204 45.4912 38.5204C45.0391 38.5205 44.5949 38.6396 44.2034 38.8658C43.8119 39.092 43.4869 39.4173 43.261 39.809C43.0351 40.2007 42.9164 40.6449 42.9166 41.0971V41.0928Z" fill="#EB1010"/>
</svg>
