<svg width="29" height="30" viewBox="0 0 29 30" fill="none" xmlns="http://www.w3.org/2000/svg">
<path fill-rule="evenodd" clip-rule="evenodd" d="M0 0.5H29V29.5H0V0.5Z" fill="#229E45"/>
<path fill-rule="evenodd" clip-rule="evenodd" d="M14.8058 23.4621L27.8219 15.0113L14.7265 6.5379L1.65955 15.034L14.8058 23.4621Z" fill="#F8E509"/>
<path fill-rule="evenodd" clip-rule="evenodd" d="M20.4756 15C20.4985 15.7375 20.3729 16.4721 20.1063 17.1601C19.8397 17.848 19.4375 18.4754 18.9237 19.0049C18.4098 19.5344 17.7948 19.9552 17.1151 20.2424C16.4354 20.5295 15.7049 20.677 14.9671 20.6763C14.2292 20.6755 13.4991 20.5265 12.82 20.2379C12.1409 19.9494 11.5267 19.5274 11.014 18.9968C10.5012 18.4662 10.1003 17.838 9.83514 17.1495C9.56996 16.4609 9.44589 15.7261 9.4703 14.9887C9.51759 13.5599 10.1188 12.2055 11.1468 11.212C12.1747 10.2185 13.5488 9.66388 14.9784 9.66535C16.408 9.66682 17.781 10.2243 18.8069 11.2199C19.8328 12.2155 20.4312 13.5711 20.4756 15Z" fill="#2B49A3"/>
<path fill-rule="evenodd" clip-rule="evenodd" d="M13.1576 18.2965L12.9877 18.1945L12.8121 18.2852L12.8518 18.0869L12.7158 17.9453L12.9084 17.9227L12.999 17.7414L13.084 17.9283L13.2766 17.9623L13.1293 18.0983M16.8506 19.2311L16.6807 19.1291L16.4994 19.2197L16.5391 19.0215L16.4031 18.8799L16.6014 18.8572L16.692 18.676L16.7713 18.8629L16.9639 18.8969L16.8223 19.0328M15.259 17.7358L15.1117 17.6508L14.9588 17.7244L14.9928 17.5545L14.8795 17.4299L15.0438 17.4129L15.1231 17.26L15.191 17.4186L15.3609 17.4469L15.2363 17.5602M18.9859 17.1977L18.8387 17.1127L18.6914 17.1863L18.7254 17.0221L18.6121 16.9031L18.7764 16.8805L18.85 16.7332L18.9236 16.8861L19.0879 16.9145L18.9633 17.0277M15.191 16.0818L15.0211 15.9799L14.8455 16.0705L14.8852 15.8723L14.7492 15.7307L14.9418 15.708L15.0324 15.5324L15.1174 15.7137L15.31 15.7477L15.1627 15.8836M10.6484 14.377L10.4785 14.275L10.3086 14.3656L10.3426 14.1674L10.2067 14.0258L10.4049 14.0031L10.4955 13.8219L10.5748 14.0088L10.7674 14.0428L10.6258 14.1787M11.1979 16.6426L11.0279 16.5463L10.8524 16.6313L10.892 16.4387L10.7561 16.2914L10.9486 16.2688L11.0393 16.0988L11.1242 16.2744L11.3168 16.3141L11.1695 16.4443M16.8676 13.5387L16.7203 13.4537L16.5617 13.5274L16.5957 13.3574L16.4824 13.2272L16.6524 13.2102L16.7317 13.0516L16.8053 13.2158L16.9752 13.2442L16.8449 13.3631M16.5617 15.017L16.4258 14.9434L16.3068 15L16.3295 14.8641L16.2389 14.7678L16.3748 14.7508L16.4371 14.6262L16.4938 14.7565L16.6297 14.7791L16.5277 14.8697M10.3879 17.0504L10.2746 16.9824L10.1557 17.0391L10.1783 16.9088L10.0877 16.8125L10.2236 16.8012L10.2803 16.6879L10.3369 16.8012L10.4672 16.8295L10.3709 16.9201M19.0143 17.5715L18.918 17.5262L18.8217 17.5658L18.8443 17.4695L18.7707 17.3959L18.8783 17.3846L18.9293 17.2996L18.969 17.3902L19.0766 17.4072L18.9973 17.4752" fill="#FFFFEF"/>
<path fill-rule="evenodd" clip-rule="evenodd" d="M10.3936 17.056L10.2803 16.9881L10.1614 17.0447L10.1897 16.9144L10.0934 16.8182L10.2237 16.8068L10.286 16.6935L10.3426 16.8068L10.4729 16.8351L10.3766 16.9258" fill="#FFFFEF"/>
<path fill-rule="evenodd" clip-rule="evenodd" d="M10.3936 17.056L10.2803 16.9881L10.1614 17.0447L10.1897 16.9144L10.0934 16.8182L10.2237 16.8068L10.286 16.6935L10.3426 16.8068L10.4729 16.8351L10.3766 16.9258M12.2004 17.056L12.0871 16.9881L11.9739 17.0447L11.9965 16.9144L11.9059 16.8182L12.0362 16.8068L12.0928 16.6879L12.1494 16.8068L12.2797 16.8351L12.1834 16.9258M11.9739 17.6621L11.8606 17.5941L11.7473 17.6508L11.7699 17.5205L11.6793 17.4242L11.8096 17.4072L11.8662 17.2939L11.9229 17.4072L12.0531 17.4355L11.9569 17.5262M15.7348 16.5633L15.6215 16.4953L15.5026 16.5519L15.5252 16.4217L15.4346 16.3254L15.5649 16.3141L15.6272 16.1951L15.6838 16.3141L15.8084 16.3367L15.7121 16.4273M14.6303 16.5633L14.517 16.4953L14.3981 16.5519L14.4264 16.4217L14.3358 16.3254L14.466 16.3141L14.5227 16.1951L14.5793 16.3141L14.7096 16.3367L14.6133 16.4273M11.6397 16.1781L11.5717 16.1385L11.4981 16.1724L11.5094 16.0875L11.4528 16.0308L11.5377 16.0195L11.5774 15.9459L11.6057 16.0252L11.6906 16.0365L11.634 16.0932M18.8727 18.0586L18.7594 17.9963L18.6405 18.0529L18.6688 17.9226L18.5781 17.8264L18.7084 17.8094L18.7651 17.6961L18.8217 17.8094L18.952 17.8377L18.8557 17.9283M17.9494 18.1775L17.8588 18.1209L17.7625 18.1775L17.7852 18.0642L17.7059 17.9849L17.8192 17.9736L17.8645 17.8773L17.9098 17.9736L18.0231 17.9963L17.9381 18.0699M18.3912 18.1719L18.3006 18.1152L18.21 18.1662L18.227 18.0642L18.159 17.9906L18.261 17.9793L18.3063 17.8887L18.3459 17.9793L18.4479 17.9963L18.3742 18.0699M19.6317 17.0844L19.5467 17.0334L19.4561 17.0787L19.4787 16.9824L19.4108 16.9088L19.5071 16.8974L19.5524 16.8125L19.592 16.9031L19.6883 16.9201L19.6147 16.9881M17.9551 18.7892L17.8418 18.7269L17.7285 18.7836L17.7569 18.659L17.6662 18.574L17.7908 18.557L17.8531 18.4494L17.9098 18.5627L18.0287 18.5853L17.9381 18.6646M17.9608 19.282L17.8588 19.2254L17.7569 19.2764L17.7795 19.1517L17.7002 19.0668L17.8135 19.0498L17.8701 18.9422L17.9155 19.0555L18.0287 19.0781L17.9438 19.1574M17.1225 18.1719L17.0375 18.1209L16.9469 18.1662L16.9696 18.0642L16.9016 17.9963L16.9979 17.9849L17.0432 17.8943L17.0828 17.9849L17.1791 18.0019L17.1055 18.0699M16.3408 18.1719L16.2559 18.1209L16.1653 18.1662L16.1879 18.0642L16.1199 17.9963L16.2162 17.9849L16.2615 17.8943L16.3012 17.9849L16.3975 18.0019L16.3295 18.0699M15.0098 17.0051L14.9248 16.9541L14.8342 16.9994L14.8569 16.9031L14.7889 16.8295L14.8852 16.8182L14.9305 16.7332L14.9701 16.8238L15.0664 16.8408L14.9928 16.9031M15.1571 19.367L15.0834 19.3273L15.0098 19.367L15.0268 19.282L14.9701 19.2254L15.0494 19.2084L15.0891 19.1348L15.1231 19.2141L15.208 19.2254L15.1457 19.282M13.152 15.5437L12.9821 15.4474L12.8065 15.5324L12.8461 15.3398L12.7102 15.1926L12.9028 15.1699L12.9934 14.9943L13.0783 15.1756L13.2709 15.2096L13.1237 15.3455" fill="#FFFFEF"/>
<path fill-rule="evenodd" clip-rule="evenodd" d="M20.1131 16.9824C20.2197 16.7047 20.303 16.4186 20.3623 16.1272C17.4397 13.5557 14.1772 12.2359 10.0537 12.5078C9.906 12.7965 9.78467 13.0979 9.69122 13.4084C11.5829 13.2174 13.4935 13.4373 15.2923 14.0532C17.0911 14.6691 18.7355 15.6664 20.1131 16.9768V16.9824Z" fill="white"/>
<path d="M18.799 15.5324L18.901 15.5891C18.8851 15.6206 18.8811 15.6568 18.8896 15.691C18.8953 15.7137 18.918 15.742 18.9463 15.759C18.9803 15.7816 19.0086 15.793 19.0369 15.793C19.0596 15.793 19.0822 15.776 19.0936 15.759C19.0992 15.7476 19.1049 15.7363 19.0992 15.7193L19.0822 15.674L19.0143 15.6004C18.9781 15.5636 18.951 15.5191 18.935 15.4701C18.9251 15.4333 18.9288 15.3941 18.9454 15.3597C18.9621 15.3254 18.9905 15.2982 19.0256 15.2832C19.0558 15.2698 19.0894 15.2659 19.1219 15.2719C19.1628 15.2808 19.2014 15.2981 19.2352 15.3228C19.2843 15.3574 19.3233 15.4043 19.3484 15.4588C19.3553 15.4839 19.3563 15.5102 19.3514 15.5357C19.3465 15.5612 19.3358 15.5853 19.3201 15.606L19.2182 15.5437C19.2295 15.5154 19.2352 15.4871 19.2295 15.4644C19.2238 15.4474 19.2012 15.4248 19.1729 15.4078C19.1445 15.3851 19.1162 15.3795 19.0936 15.3795C19.087 15.3797 19.0806 15.3813 19.0747 15.3842C19.0688 15.3872 19.0637 15.3913 19.0596 15.3965C19.0557 15.4022 19.0531 15.4088 19.0521 15.4156C19.0511 15.4225 19.0517 15.4295 19.0539 15.4361C19.0539 15.4588 19.0822 15.4928 19.1219 15.5324L19.2068 15.6457C19.2223 15.6739 19.2294 15.7059 19.2274 15.738C19.2254 15.77 19.2143 15.8009 19.1955 15.8269C19.1757 15.855 19.1482 15.8767 19.1162 15.8892C19.0825 15.9046 19.0447 15.9086 19.0086 15.9006C18.9656 15.8896 18.9252 15.8704 18.8896 15.8439C18.8362 15.8118 18.796 15.7616 18.7764 15.7023C18.7594 15.6514 18.765 15.5947 18.799 15.5324ZM18.3006 15.2096L18.4139 15.2662C18.4006 15.2944 18.3966 15.3262 18.4025 15.3568C18.4082 15.3851 18.4309 15.4135 18.4592 15.4305C18.4932 15.4531 18.5215 15.4588 18.5498 15.4531C18.5725 15.4531 18.5951 15.4418 18.6064 15.4191C18.6118 15.4087 18.6138 15.3968 18.6121 15.3851C18.6121 15.3682 18.6064 15.3568 18.5895 15.3398L18.5215 15.2662C18.4842 15.2316 18.4552 15.189 18.4365 15.1416C18.429 15.1191 18.4266 15.0952 18.4296 15.0717C18.4325 15.0482 18.4407 15.0256 18.4535 15.0057C18.4703 14.9807 18.4939 14.9611 18.5215 14.949C18.5518 14.936 18.5853 14.932 18.6178 14.9377C18.6518 14.9377 18.6857 14.9547 18.7311 14.983C18.7877 15.0226 18.833 15.0623 18.8443 15.1133C18.8528 15.1375 18.8557 15.1633 18.8527 15.1889C18.8498 15.2144 18.8411 15.2389 18.8273 15.2605L18.7197 15.1982C18.7367 15.1699 18.7367 15.1416 18.7311 15.1246C18.7197 15.1019 18.7027 15.0849 18.6744 15.068C18.6501 15.0492 18.6202 15.0392 18.5895 15.0396C18.5824 15.0405 18.5757 15.043 18.5698 15.0469C18.5639 15.0509 18.559 15.0561 18.5555 15.0623C18.5525 15.0685 18.5509 15.0752 18.5509 15.0821C18.5509 15.089 18.5525 15.0958 18.5555 15.1019C18.5555 15.1189 18.5838 15.1529 18.6234 15.1982C18.6687 15.2379 18.6971 15.2775 18.7141 15.3002C18.7315 15.3285 18.7403 15.3613 18.7393 15.3945C18.7382 15.4277 18.7275 15.4599 18.7084 15.4871C18.6891 15.5165 18.6617 15.5396 18.6295 15.5537C18.5974 15.5677 18.5618 15.5722 18.5271 15.5664C18.4827 15.5577 18.4403 15.5404 18.4025 15.5154C18.3483 15.4854 18.3062 15.4373 18.2836 15.3795C18.2675 15.3227 18.2735 15.262 18.3006 15.2096ZM17.6889 15.0396L18.0061 14.5299L18.3855 14.7564L18.3289 14.8471L18.057 14.6771L17.9834 14.7904L18.2439 14.949L18.1873 15.0396L17.9324 14.881L17.8475 15.0226L18.1307 15.1926L18.0797 15.2832L17.6889 15.0396ZM16.7939 14.309L16.8449 14.2183L17.0715 14.343L16.9639 14.5525C16.872 14.5729 16.776 14.5609 16.692 14.5185C16.6413 14.4923 16.5984 14.4532 16.5674 14.4053C16.5374 14.362 16.5216 14.3106 16.5221 14.258C16.5221 14.2014 16.5391 14.1504 16.5674 14.0994C16.5935 14.0471 16.6325 14.0023 16.6807 13.9691C16.7203 13.9351 16.777 13.9182 16.8336 13.9182C16.8732 13.9182 16.9242 13.9351 16.9752 13.9578C17.031 13.984 17.0768 14.0278 17.1055 14.0824C17.1281 14.1277 17.1338 14.1787 17.1225 14.2353L17.0035 14.2014C17.0099 14.1726 17.0059 14.1425 16.9922 14.1164C16.9771 14.0886 16.9532 14.0667 16.9242 14.0541C16.9041 14.0416 16.8816 14.0337 16.8581 14.0307C16.8346 14.0278 16.8108 14.03 16.7883 14.0371C16.7486 14.0541 16.709 14.0937 16.675 14.1504C16.6474 14.2025 16.6375 14.2621 16.6467 14.3203C16.658 14.3656 16.6863 14.3996 16.7373 14.4223L16.8109 14.4449H16.8846L16.9186 14.3769L16.7939 14.309ZM12.8971 13.3461L12.9877 12.7457L13.1689 12.774L13.2143 13.1988L13.3842 12.8023L13.5598 12.8307L13.4748 13.431L13.3615 13.4141L13.4295 12.9439L13.2426 13.3971L13.1293 13.3801L13.0783 12.8873L13.0104 13.3631L12.8971 13.3461ZM12.291 13.2724L12.3477 12.6721L12.7895 12.7117L12.7838 12.8137L12.4553 12.7853L12.4439 12.9156L12.7441 12.9439L12.7385 13.0459L12.4383 13.0176L12.4213 13.1875L12.7555 13.2158L12.7441 13.3178L12.291 13.2724Z" fill="#309E3A"/>
<path d="M10.2746 12.8929C10.2746 12.8363 10.2859 12.7797 10.3029 12.74L10.3596 12.6607L10.4445 12.6041C10.4864 12.5897 10.5307 12.5839 10.5748 12.5871C10.6141 12.5868 10.6531 12.5947 10.6891 12.6103C10.7252 12.6259 10.7577 12.6489 10.7844 12.6777C10.841 12.7344 10.858 12.808 10.858 12.9043C10.858 13.0062 10.824 13.0799 10.7731 13.1308C10.7447 13.1583 10.7109 13.1796 10.6738 13.1932C10.6368 13.2069 10.5972 13.2127 10.5578 13.2101C10.5189 13.2111 10.4802 13.2041 10.4442 13.1895C10.4081 13.1749 10.3755 13.153 10.3482 13.1252C10.3203 13.095 10.2992 13.0591 10.2865 13.02C10.2737 12.9809 10.2697 12.9395 10.2746 12.8986V12.8929Z" fill="#309E3A"/>
<path d="M10.3992 12.8929C10.3992 12.9609 10.4105 13.0175 10.4445 13.0515C10.4729 13.0912 10.5125 13.1082 10.5578 13.1082C10.581 13.1086 10.604 13.1043 10.6254 13.0955C10.6468 13.0868 10.6662 13.0737 10.6824 13.0572C10.7107 13.0232 10.7277 12.9722 10.7334 12.9043C10.7334 12.8306 10.7221 12.7797 10.6881 12.7457C10.6743 12.7287 10.6571 12.7148 10.6376 12.7051C10.618 12.6953 10.5966 12.6898 10.5748 12.689C10.5182 12.689 10.4785 12.706 10.4502 12.74C10.4162 12.774 10.3992 12.825 10.3936 12.8929H10.3992Z" fill="#F7FFFF"/>
<path d="M10.9883 13.2102L10.9939 12.6041H11.2488C11.3168 12.6041 11.3621 12.6155 11.3904 12.6268C11.4188 12.6381 11.4471 12.6551 11.4584 12.6834C11.4697 12.7117 11.4867 12.7401 11.4867 12.7797C11.4867 12.825 11.4697 12.859 11.4471 12.893C11.4188 12.9213 11.3791 12.9383 11.3225 12.9496C11.3508 12.961 11.3734 12.978 11.3904 12.9949L11.4584 13.0969L11.532 13.2102H11.3848L11.2998 13.0799C11.2791 13.0483 11.2564 13.018 11.2318 12.9893C11.2224 12.9792 11.2108 12.9715 11.1979 12.9666C11.1796 12.9601 11.1605 12.9563 11.1412 12.9553H11.1129V13.2102H10.9883Z" fill="#309E3A"/>
<path d="M11.1129 12.859H11.2035C11.2412 12.8637 11.2792 12.8637 11.3168 12.859L11.3451 12.8307C11.3565 12.8193 11.3621 12.8024 11.3621 12.7854C11.3621 12.7627 11.3565 12.7457 11.3451 12.7344C11.3332 12.7217 11.3171 12.7137 11.2998 12.7117H11.1186L11.1129 12.859Z" fill="white"/>
<path d="M11.6793 12.6324L11.9002 12.6438C11.9386 12.6444 11.9767 12.6501 12.0135 12.6608C12.0458 12.6729 12.0748 12.6923 12.0984 12.7174C12.1249 12.7488 12.1442 12.7855 12.1551 12.825C12.1664 12.8647 12.1664 12.91 12.1664 12.9666C12.1681 13.01 12.1604 13.0532 12.1438 13.0933C12.1271 13.1334 12.102 13.1694 12.0701 13.1989C12.0475 13.2158 12.0192 13.2328 11.9852 13.2442H11.8719L11.6453 13.2385L11.6793 12.6324Z" fill="#309E3A"/>
<path d="M11.7926 12.7401L11.7756 13.1365L11.8662 13.1479H11.9398L11.9908 13.1195C12.0078 13.1082 12.0135 13.0912 12.0248 13.0629L12.0418 12.9496L12.0361 12.8477C12.0248 12.8193 12.0191 12.8024 12.0021 12.791C11.9871 12.7743 11.9673 12.7625 11.9455 12.757C11.9138 12.7504 11.8816 12.7466 11.8492 12.7457L11.7926 12.7401Z" fill="white"/>
<path d="M14.6416 13.7142L14.7832 13.1252L14.9701 13.1705C15.0437 13.1875 15.0891 13.2045 15.1117 13.2158C15.14 13.2328 15.1684 13.2555 15.1797 13.2894C15.1967 13.3291 15.1967 13.3687 15.1854 13.4141C15.1803 13.4433 15.1678 13.4707 15.1489 13.4935C15.13 13.5164 15.1055 13.5339 15.0777 13.5443C15.0582 13.5539 15.0371 13.5597 15.0154 13.5613C14.9733 13.5577 14.9316 13.5501 14.8908 13.5387L14.8115 13.5217L14.7549 13.7426L14.6416 13.7142Z" fill="#309E3A"/>
<path d="M14.8738 13.2554L14.8342 13.4254L14.9021 13.4367C14.9474 13.448 14.9814 13.4537 14.9984 13.448C15.0141 13.4464 15.0289 13.4401 15.041 13.4301C15.0531 13.42 15.062 13.4065 15.0664 13.3914L15.0607 13.3291C15.051 13.3108 15.0349 13.2967 15.0154 13.2894L14.9305 13.2668L14.8738 13.2554Z" fill="white"/>
<path d="M15.2023 13.8842L15.4006 13.3121L15.6441 13.3971C15.6883 13.4096 15.7303 13.4287 15.7687 13.4537C15.7914 13.4764 15.8084 13.5047 15.8197 13.5387C15.8367 13.5897 15.8197 13.601 15.8084 13.635C15.7971 13.6803 15.7687 13.7086 15.7348 13.7256C15.7153 13.7369 15.6937 13.7443 15.6713 13.7472C15.649 13.7501 15.6262 13.7486 15.6045 13.7426L15.6498 13.8106L15.6838 13.9239L15.7121 14.0598L15.5762 14.0145L15.5365 13.8615C15.5277 13.8249 15.5163 13.789 15.5025 13.7539C15.4977 13.741 15.4899 13.7294 15.4799 13.7199C15.4627 13.7074 15.4435 13.6979 15.4232 13.6916L15.4006 13.686L15.3156 13.9239L15.2023 13.8842Z" fill="#309E3A"/>
<path d="M15.4289 13.5953L15.5139 13.6236L15.6215 13.652C15.6385 13.652 15.6498 13.652 15.6611 13.6406L15.6894 13.601V13.5443C15.6822 13.5295 15.6703 13.5176 15.6555 13.5104L15.5705 13.482L15.4799 13.4481L15.4289 13.5953Z" fill="white"/>
<path d="M15.9103 13.8615C15.9247 13.8097 15.9498 13.7614 15.984 13.7199C16.001 13.6916 16.0293 13.6746 16.0576 13.6576C16.0856 13.6422 16.1164 13.6325 16.1482 13.6293C16.1879 13.6293 16.2332 13.6293 16.2785 13.6463C16.3169 13.6559 16.3529 13.6734 16.3841 13.6978C16.4154 13.7222 16.4411 13.7529 16.4597 13.7879C16.4937 13.8558 16.4994 13.9408 16.4654 14.0314C16.456 14.0722 16.4387 14.1107 16.4144 14.1447C16.3901 14.1787 16.3593 14.2076 16.3238 14.2297C16.2889 14.2471 16.2507 14.2571 16.2117 14.259C16.1727 14.261 16.1338 14.2548 16.0972 14.241C16.0588 14.2314 16.0228 14.2138 15.9916 14.1894C15.9604 14.165 15.9346 14.1344 15.916 14.0994C15.8827 14.024 15.8807 13.9384 15.9103 13.8615Z" fill="#309E3A"/>
<path d="M16.0293 13.8955C16.0123 13.9578 16.0123 14.0087 16.0293 14.0541C16.0519 14.0994 16.0859 14.1277 16.1312 14.1447C16.1765 14.156 16.2162 14.1503 16.2558 14.1277C16.2955 14.105 16.3295 14.0597 16.3521 13.9918C16.3691 13.9238 16.3691 13.8728 16.3521 13.8275C16.3426 13.8066 16.3285 13.7881 16.3109 13.7734C16.2932 13.7587 16.2725 13.7481 16.2502 13.7425C16.2286 13.7355 16.2057 13.7334 16.1831 13.7363C16.1606 13.7393 16.139 13.7472 16.1199 13.7595C16.0803 13.7822 16.0519 13.8275 16.0293 13.8955Z" fill="white"/>
<path d="M17.0885 14.7054L17.366 14.1674L17.5926 14.2806C17.6492 14.3146 17.6889 14.3373 17.7059 14.3599C17.7285 14.3883 17.7399 14.4166 17.7455 14.4449C17.7512 14.4732 17.7455 14.5129 17.7229 14.5412C17.7059 14.5808 17.6776 14.6092 17.6379 14.6261C17.5983 14.6375 17.5586 14.6375 17.5076 14.6205C17.5246 14.6431 17.536 14.6715 17.5416 14.6941L17.5586 14.8131L17.5699 14.9547L17.4397 14.8867L17.4227 14.7281L17.4057 14.6148C17.4008 14.6019 17.3931 14.5903 17.383 14.5808C17.3679 14.5669 17.3507 14.5555 17.3321 14.5469L17.3094 14.5355L17.1961 14.7621L17.0885 14.7054Z" fill="#309E3A"/>
<path d="M17.3547 14.4506L17.434 14.4902L17.536 14.5355C17.553 14.5355 17.5643 14.5355 17.5756 14.5242C17.5909 14.5163 17.6034 14.5039 17.6115 14.4888C17.6196 14.4736 17.6229 14.4563 17.6209 14.4392C17.6148 14.4223 17.6028 14.4082 17.587 14.3996C17.563 14.3836 17.5384 14.3685 17.5133 14.3543L17.4284 14.3146L17.3547 14.4506Z" fill="white"/>
<path d="M19.3258 15.8099C19.3598 15.7533 19.3938 15.7193 19.4391 15.6967C19.4667 15.6782 19.4974 15.6648 19.5297 15.657C19.5596 15.6512 19.5904 15.6512 19.6203 15.657C19.66 15.6627 19.7053 15.6797 19.7449 15.7136C19.7784 15.7341 19.8073 15.7612 19.8297 15.7934C19.8521 15.8256 19.8676 15.8621 19.8752 15.9006C19.8834 15.983 19.8613 16.0656 19.8129 16.1328C19.7914 16.1693 19.7627 16.2012 19.7287 16.2265C19.6946 16.2518 19.6559 16.27 19.6146 16.2801C19.5763 16.2872 19.5369 16.2864 19.4989 16.2776C19.4609 16.2689 19.4251 16.2523 19.3938 16.2291C19.3603 16.2086 19.3314 16.1815 19.309 16.1493C19.2866 16.1171 19.2711 16.0806 19.2635 16.0422C19.2572 16.0016 19.2589 15.9603 19.2686 15.9204C19.2784 15.8805 19.2959 15.843 19.3201 15.8099H19.3258Z" fill="#309E3A"/>
<path d="M19.4277 15.8722C19.3937 15.9289 19.3768 15.9855 19.3824 16.0308C19.3863 16.0537 19.3948 16.0756 19.4075 16.0951C19.4202 16.1146 19.4367 16.1312 19.4561 16.1441C19.474 16.1566 19.4944 16.165 19.5159 16.1689C19.5374 16.1728 19.5595 16.1721 19.5807 16.1667C19.626 16.1554 19.6713 16.1214 19.7109 16.0591C19.7506 16.0025 19.7676 15.9515 19.7562 15.9062C19.7562 15.8609 19.7279 15.8269 19.6883 15.7929C19.6486 15.7589 19.6033 15.7589 19.558 15.7703C19.5127 15.7816 19.473 15.8156 19.4334 15.8722H19.4277Z" fill="white"/>
<path d="M13.9562 13.4707L14.0525 13.0402L14.3697 13.1139L14.3527 13.1875L14.1262 13.1308L14.1035 13.2271L14.3131 13.2781L14.2961 13.3517L14.0865 13.2951L14.0582 13.4141L14.2961 13.4707L14.2791 13.5443L13.9562 13.4707Z" fill="#309E3A"/>
</svg>
