<svg width="31" height="31" viewBox="0 0 31 31" fill="none" xmlns="http://www.w3.org/2000/svg">
<path d="M21.2375 11.75H19.25V5.5C19.25 4.8125 18.6875 4.25 18 4.25H13C12.3125 4.25 11.75 4.8125 11.75 5.5V11.75H9.7625C8.65 11.75 8.0875 13.1 8.875 13.8875L14.6125 19.625C15.1 20.1125 15.8875 20.1125 16.375 19.625L22.1125 13.8875C22.9 13.1 22.35 11.75 21.2375 11.75ZM6.75 24.25C6.75 24.9375 7.3125 25.5 8 25.5H23C23.6875 25.5 24.25 24.9375 24.25 24.25C24.25 23.5625 23.6875 23 23 23H8C7.3125 23 6.75 23.5625 6.75 24.25Z" fill="#32444D"/>
</svg>
