<svg width="73" height="73" viewBox="0 0 73 73" fill="none" xmlns="http://www.w3.org/2000/svg">
<path d="M20.867 10.7015H17.9263V21.5015H20.2393V17.8588L20.75 17.888C21.2465 17.8812 21.7384 17.7922 22.2058 17.6248C22.6167 17.4852 22.9943 17.2623 23.315 16.97C23.6439 16.6942 23.9023 16.3441 24.0688 15.9485C24.2966 15.2931 24.3772 14.5956 24.305 13.9055C24.2922 13.4124 24.2057 12.924 24.0485 12.4565C23.9068 12.1186 23.6962 11.8139 23.43 11.5621C23.1638 11.3103 22.848 11.1168 22.5028 10.994C22.2051 10.8838 21.8967 10.8053 21.5825 10.76C21.3452 10.7214 21.1052 10.7018 20.8648 10.7015M20.4395 15.863H20.2393V12.533H20.6735C20.8652 12.5192 21.0575 12.5486 21.2362 12.6191C21.415 12.6896 21.5756 12.7993 21.7063 12.9403C21.977 13.3025 22.1216 13.7435 22.118 14.1958C22.118 14.7493 22.118 15.251 21.6185 15.6043C21.2588 15.8024 20.8491 15.8938 20.4395 15.863ZM28.6993 10.6723C28.4495 10.6723 28.2065 10.6903 28.0355 10.697L27.5 10.7105H25.745V21.5105H27.8105C28.5998 21.5308 29.3854 21.3971 30.1235 21.1168C30.7178 20.8821 31.2438 20.5023 31.6535 20.012C32.055 19.5196 32.3417 18.9439 32.4928 18.3268C32.6702 17.6291 32.7565 16.9113 32.7493 16.1915C32.7933 15.3414 32.7275 14.4891 32.5535 13.6558C32.3869 13.0431 32.0787 12.4781 31.6535 12.0065C31.3201 11.6251 30.9099 11.3185 30.4498 11.1065C30.0556 10.9238 29.6409 10.7893 29.2145 10.706C29.045 10.6782 28.8733 10.6654 28.7015 10.6678M28.292 19.526H28.067V12.632H28.0963C28.5601 12.5784 29.0295 12.6621 29.4463 12.8728C29.7515 13.1165 30.0002 13.4236 30.1753 13.7728C30.3642 14.1403 30.4731 14.5436 30.4948 14.9563C30.515 15.4513 30.4948 15.8563 30.4948 16.1915C30.5031 16.5777 30.4783 16.9638 30.4205 17.3458C30.3497 17.7374 30.2216 18.1165 30.0403 18.4708C29.8354 18.8011 29.5556 19.0786 29.2235 19.2808C28.9461 19.4608 28.6172 19.5446 28.2875 19.5193M39.7175 10.7105H34.25V21.5105H36.563V17.2265H39.488V15.2195H36.563V12.7175H39.713V10.7105" fill="#464648"/>
<path d="M54.725 5.16162L67.244 18.2116V67.8376H20.4778V67.9996H67.4038V18.3759L54.725 5.16162Z" fill="#909090"/>
<path d="M54.5699 5H20.3181V67.838H67.2441V18.2143L54.5699 5Z" fill="#F4F4F4"/>
<path d="M19.9738 8.375H5.59631V23.7357H50.8213V8.375H19.9738Z" fill="#7A7B7C"/>
<path d="M51.062 23.4745H5.88879V8.10254H51.062V23.4745Z" fill="#DD2025"/>
<path d="M49.5073 46.0739C49.5073 46.0739 56.6803 44.7734 56.6803 47.2236C56.6803 49.6739 52.2365 48.6771 49.5073 46.0739ZM44.204 46.2606C43.0642 46.5118 41.9535 46.8805 40.8898 47.3609L41.7898 45.3359C42.6898 43.3109 43.6235 40.5501 43.6235 40.5501C44.6948 42.3594 45.9445 44.0569 47.354 45.6171C46.2929 45.7752 45.2414 45.9915 44.204 46.2651V46.2606ZM41.3645 31.6356C41.3645 29.5004 42.0553 28.9176 42.593 28.9176C43.1308 28.9176 43.736 29.1764 43.7563 31.0304C43.5808 32.8946 43.1905 34.7323 42.593 36.5069C41.7719 35.018 41.348 33.3427 41.3623 31.6424L41.3645 31.6356ZM30.9043 55.2966C28.7038 53.9804 35.519 49.9281 36.7543 49.7976C36.7543 49.7976 33.2083 56.6736 30.9043 55.2966ZM58.775 47.5139C58.7525 47.2889 58.55 44.7981 54.1175 44.9039C52.2699 44.8715 50.4231 45.0018 48.5983 45.2931C46.8295 43.5128 45.307 41.5037 44.0713 39.3194C44.8493 37.0678 45.3208 34.7218 45.473 32.3444C45.4078 29.6444 44.762 28.0964 42.692 28.1189C40.622 28.1414 40.3205 29.9526 40.5928 32.6481C40.8592 34.4596 41.3623 36.2282 42.089 37.9086C42.089 37.9086 41.1328 40.8854 39.8683 43.8464C38.6038 46.8074 37.7398 48.3599 37.7398 48.3599C35.5406 49.0749 33.4705 50.1385 31.6085 51.5099C29.7545 53.2356 29.0008 54.5609 29.9773 55.8861C30.8188 57.0291 33.764 57.2879 36.3965 53.8386C37.7929 52.0554 39.0706 50.1823 40.2215 48.2316C40.2215 48.2316 44.2355 47.1314 45.4843 46.8299C46.733 46.5284 48.2428 46.2899 48.2428 46.2899C48.2428 46.2899 51.908 49.9776 55.4428 49.8471C58.9775 49.7166 58.8065 47.7344 58.784 47.5184" fill="#DD2025"/>
<path d="M54.3966 5.17383V18.3881H67.0709L54.3966 5.17383Z" fill="#909090"/>
<path d="M54.5698 5V18.2143H67.2441L54.5698 5Z" fill="#F4F4F4"/>
<path d="M20.6938 10.5282H17.7531V21.3282H20.0751V17.6877L20.5881 17.7169C21.0845 17.7101 21.5764 17.6211 22.0438 17.4537C22.4547 17.3141 22.8323 17.0912 23.1531 16.7989C23.4795 16.5224 23.7355 16.1723 23.9001 15.7774C24.1279 15.122 24.2085 14.4245 24.1363 13.7344C24.1235 13.2413 24.037 12.7529 23.8798 12.2854C23.7381 11.9475 23.5275 11.6429 23.2613 11.391C22.9951 11.1392 22.6793 10.9457 22.3341 10.8229C22.035 10.7116 21.7251 10.6324 21.4093 10.5867C21.172 10.548 20.932 10.5285 20.6916 10.5282M20.2663 15.6897H20.0661V12.3597H20.5026C20.6942 12.3458 20.8865 12.3753 21.0653 12.4458C21.244 12.5162 21.4047 12.626 21.5353 12.7669C21.806 13.1292 21.9506 13.5702 21.9471 14.0224C21.9471 14.5759 21.9471 15.0777 21.4476 15.4309C21.0878 15.6291 20.6781 15.7182 20.2686 15.6874M28.5261 10.4989C28.2763 10.4989 28.0333 10.5169 27.8623 10.5237L27.3336 10.5372H25.5786V21.3372H27.6441C28.4333 21.3575 29.219 21.2237 29.9571 20.9434C30.5513 20.7087 31.0773 20.3289 31.4871 19.8387C31.8886 19.3463 32.1753 18.7705 32.3263 18.1534C32.5038 17.4557 32.59 16.738 32.5828 16.0182C32.6268 15.168 32.5611 14.3157 32.3871 13.4824C32.2205 12.8697 31.9122 12.3048 31.4871 11.8332C31.1536 11.4518 30.7434 11.1451 30.2833 10.9332C29.8892 10.7505 29.4744 10.616 29.0481 10.5327C28.8785 10.5049 28.7068 10.4921 28.5351 10.4944M28.1256 19.3527H27.9006V12.4587H27.9298C28.3937 12.405 28.8631 12.4887 29.2798 12.6994C29.585 12.9431 29.8338 13.2502 30.0088 13.5994C30.1977 13.9669 30.3066 14.3703 30.3283 14.7829C30.3486 15.2779 30.3283 15.6829 30.3283 16.0182C30.3366 16.4043 30.3118 16.7905 30.2541 17.1724C30.1833 17.5641 30.0551 17.9431 29.8738 18.2974C29.6689 18.6278 29.3891 18.9053 29.0571 19.1074C28.7797 19.2874 28.4508 19.3712 28.1211 19.3459M39.5443 10.5372H34.0768V21.3372H36.3898V17.0532H39.3148V15.0462H36.3898V12.5442H39.5398V10.5372" fill="white"/>
</svg>
